/* XPM */
static char * led_off_xpm[] = {
"14 14 7 1",
" 	c None",
".	c #687785",
"+	c #788591",
"@	c #B2B9BF",
"#	c #EDEDED",
"$	c #E1E2E4",
"%	c #909AA4",
"              ",
"     ....     ",
"   .+@#$@+.   ",
"  .%######%.  ",
"  +########+  ",
" .@########@. ",
" .$########$. ",
" .$########$. ",
" .@########@. ",
"  +########+  ",
"  .%######%.  ",
"   .+@#$@+.   ",
"     ....     ",
"              "};
