/* XPM */
static char * isi_xpm[] = {
"75 75 100 2",
"  	c #00007F",
". 	c #0F0677",
"+ 	c #1E0D6F",
"@ 	c #111177",
"# 	c #3D1B5E",
"$ 	c #2D1466",
"% 	c #22226F",
"& 	c #333366",
"* 	c #7A363C",
"= 	c #4C2255",
"- 	c #5B284D",
"; 	c #6A2F44",
"> 	c #44445E",
", 	c #555555",
"' 	c #66664D",
") 	c #777744",
"! 	c #111188",
"~ 	c #222291",
"{ 	c #333399",
"] 	c #4444A2",
"^ 	c #5555AA",
"/ 	c #6666B3",
"( 	c #7777BB",
"_ 	c #893D33",
": 	c #98442B",
"< 	c #B7511A",
"[ 	c #A74A22",
"} 	c #C65811",
"| 	c #D55F09",
"1 	c #E56600",
"2 	c #E77111",
"3 	c #E97B22",
"4 	c #88883C",
"5 	c #999933",
"6 	c #AAAA2B",
"7 	c #BBBB22",
"8 	c #EB8533",
"9 	c #EC8F44",
"0 	c #EE9955",
"a 	c #F0A466",
"b 	c #F2AE70",
"c 	c #F2AE77",
"d 	c #CCCC1A",
"e 	c #DDDD11",
"f 	c #EEEE09",
"g 	c #FFFF00",
"h 	c #FFFF08",
"i 	c #FFFF0F",
"j 	c #FFFF11",
"k 	c #FFFF13",
"l 	c #FFFF17",
"m 	c #FFFF18",
"n 	c #FFFF1C",
"o 	c #FFFF1F",
"p 	c #FFFF22",
"q 	c #FFFF29",
"r 	c #FFFF30",
"s 	c #FFFF33",
"t 	c #FAE15C",
"u 	c #FFFF40",
"v 	c #FFFF44",
"w 	c #FFFF48",
"x 	c #FFFF49",
"y 	c #FEF556",
"z 	c #FFFF55",
"A 	c #FFFF5C",
"B 	c #FFFF60",
"C 	c #FFFF66",
"D 	c #FFFF68",
"E 	c #FFFF72",
"F 	c #FFFF77",
"G 	c #FFFF7B",
"H 	c #8888C4",
"I 	c #9999CC",
"J 	c #AAAAD5",
"K 	c #BBBBDD",
"L 	c #F3B888",
"M 	c #C8C8B1",
"N 	c #F5C299",
"O 	c #F7CCAA",
"P 	c #F9D7BB",
"Q 	c #FFFF88",
"R 	c #FFFF8F",
"S 	c #FFFF96",
"T 	c #FFFF99",
"U 	c #FFFF9F",
"V 	c #FFFFA3",
"W 	c #FFFFAA",
"X 	c #FFFFBB",
"Y 	c #CCCCE6",
"Z 	c #DDDDEE",
"` 	c #FAE1CC",
" .	c #FCEBDD",
"..	c #FFFFCC",
"+.	c #FFFFCF",
"@.	c #FFFFDD",
"#.	c #EEEEF7",
"$.	c #FEF5EE",
"%.	c #FFFFEE",
"&.	c #FFFFFF",
"#.#.#.#.#.#.#.&.&.&.&.&.&.&.&.&.&.&.&.&.&.&.&.&.&.&.&.&.&.&.&.&.&.&.&.&.&.&.&.&.&.&.&.&.&.&.&.&.&.&.&.&.&.&.&.&.&.&.&.&.&.&.&.&.&.&.&.&.#.#.#.#.#.#.#.",
"#.#.#.#.#.&.&.&.&.&.&.&.&.&.&.&.&.&.&.&.&.&.&.&.&.&.&.&.&.&.&.&.&.&.&.&.&.&.c &.&.&.&.&.&.&.&.&.&.&.&.&.&.&.&.&.&.&.&.&.&.&.&.&.&.&.&.&.&.&.#.#.#.#.#.",
"#.#.#.&.&.&.&.&.&.&.&.&.&.&.&.&.&.&.&.&.&.&.&.&.&.&.&.&.&.&.&.&.&.&.&.&.&.3 1 &.&.&.&.&.&.&.&.&.&.&.&.&.&.&.&.&.&.&.&.&.&.&.&.&.&.&.&.&.&.&.&.&.#.#.#.",
"#.#.&.&.&.&.&.&.&.&.&.&.&.&.&.&.&.&.&.&.&.&.&.&.&.&.&.&.&.&.&.&.&.&.&.&.&.1 1 &.&.&.&.&.&.&.&.&.&.&.&.&.&.&.&.&.&.&.&.&.&.&.&.&.&.&.&.&.&.&.&.&.&.#.#.",
"#.#.&.&.&.&.&.&.&.&.&.&.&.&.&.&.&.&.&.&.&.&.&.&.&.&.&.&.&.&.&.&.&.&.&.&.&.1 1 L &.&.&.&.&.&.&.&.&.&.&.&.&.&.&.&.&.&.&.&.&.&.&.&.&.&.&.&.&.&.&.&.&.#.#.",
"#.&.&.&.&.&.&.&.&.&.&.&.&.&.&.&.&.&.&.&.&.&.&.&.&.&.&.&.&.&.&.&.&.&.&.&.0 1 1 1 &.&.&.&.&.&.&.&.&.&.&.&.&.&.&.&.&.&.&.&.&.&.&.&.&.&.&.&.&.&.&.&.&.&.#.",
"#.&.&.&.&.&.&.&.&.&.&.&.&.&.&.&.&.&.&.&.&.&.&.&.&.&.&.&.&.&.&.&.&.&.&.&.1 1 1 1 &.&.&.&.&.&.&.&.&.&.&.&.&.&.&.&.&.&.&.&.&.&.&.&.&.&.&.&.&.&.&.&.&.&.#.",
"&.&.&.&.&.&.&.&.&.&.&.&.&.&.&.&.&.&.&.&.&.&.&.&.&.&.&.&.A 1 1 1 1 1 1 1 1 1 1 1 1 1 1 1 1 1 1 t &.&.&.&.&.&.&.&.&.&.&.&.&.&.&.&.&.&.&.&.&.&.&.&.&.&.&.",
"&.&.&.&.&.&.&.&.&.&.&.&.&.&.&.&.&.&.&.&.&.&.&.&.&.&.&.&.g &.1 1 1 1 1 1 1 1 1 1 1 1 1 1 1 1 &.g &.&.&.&.&.&.&.&.&.&.&.&.&.&.&.&.&.&.&.&.&.&.&.&.&.&.&.",
"&.&.&.&.&.&.&.&.&.&.&.&.&.&.&.&.&.&.&.&.&.&.&.&.&.&.&.&.o &.&.` 1 1 1 1 1 1 1 1 1 1 1 1 8 &.&.g Q &.&.&.&.&.&.&.&.&.&.&.&.&.&.&.&.&.&.&.&.&.&.&.&.&.&.",
"&.&.&.&.&.&.&.&.&.&.&.&.&.&.&.&.&.&.&.&.&.&.&.&.&.&.&.F &.C &.&.&.1 1 1 1 1 1 1 1 1 1 &.&.&.&.F g &.&.&.&.&.&.&.&.&.&.&.&.&.&.&.&.&.&.&.&.&.&.&.&.&.&.",
"&.&.&.&.&.&.&.&.&.&.&.&.&.&.&.&.&.&.&.&.&.&.&.&.&.&.&.g &.g &.&.&.&.3 1 1 1 1 1 1 1 &.&.&.&.Q &.g &.&.&.&.&.&.&.&.&.&.&.&.&.&.&.&.&.&.&.&.&.&.&.&.&.&.",
"&.&.&.&.&.&.&.&.&.&.&.&.&.&.&.&.&.&.&.&.&.&.&.&.&.&.&.g &.g &.&.&.&.1 1 1 1 1 1 1 1 &.&.&.&.g &.F &.&.&.&.&.&.&.&.&.&.&.&.&.&.&.&.&.&.&.&.&.&.&.&.&.&.",
"&.&.&.&.&.&.&.&.&.&.&.&.&.&.&.&.&.&.&.&.&.&.&.&.&.&.&.Q &.g &.&.&.&.1 1 1 1 1 1 1 1  .&.&.&.g &.&.p &.&.&.&.&.&.&.&.&.&.&.&.&.&.&.&.&.&.&.&.&.&.&.&.&.",
"&.&.&.&.&.&.&.&.&.&.&.&.&.&.&.&.&.&.&.&.&.&.&.&.&.&.j &.&.T &.&.&.L 1 1 1 1 b 1 1 1 1 &.&.&.g &.&.g &.&.&.&.&.&.&.&.&.&.&.&.&.&.&.&.&.&.&.&.&.&.&.&.&.",
"&.&.&.&.&.&.&.&.&.&.&.&.&.&.&.&.&.&.&.&.&.&.&.&.&.&.g &.&.&.z &.&.1 1 1 ` &.F &.1 1 1 &.&.&.F &.&.g &.&.&.&.&.&.&.&.&.&.&.&.&.&.&.&.&.&.&.&.&.&.&.&.&.",
"&.&.&.&.&.&.&.&.&.&.&.&.&.&.&.&.&.&.&.&.&.&.&.&.&.&.g &.&.&.g &.&.1 1 &.&.&.F &.&.1 1 $.&.F &.&.&.@...&.&.&.&.&.&.&.&.&.&.&.&.&.&.&.&.&.&.&.&.&.&.&.&.",
"&.&.&.&.&.&.&.&.&.&.&.&.&.&.&.&.&.&.&.&.&.&.&.&.&.W &.&.&.&.g &.N 8 &.&.&.&.F &.&.&. .1 &.g &.&.&.&.g &.&.&.&.&.&.&.&.&.&.&.&.&.&.&.&.&.&.&.&.&.&.&.&.",
"&.&.&.&.&.&.&.&.&.&.&.&.&.&.&.&.&.&.&.&.&.&.&.&.&.g &.&.&.&.g &.&.&.&.&.&.&.F &.&.&.&.&.&.g &.&.&.&.g &.&.&.&.&.&.&.&.&.&.&.&.&.&.&.&.&.&.&.&.&.&.&.&.",
"&.&.&.&.&.&.&.&.&.&.&.&.&.&.&.&.&.&.&.&.&.&.&.&.&.g &.&.&.&.W X g &.&.&.&.&.F &.&.&.&.g g g &.&.&.&.s &.&.&.&.&.&.&.&.&.&.&.&.&.&.&.&.&.&.&.&.&.&.&.&.",
"&.&.&.&.&.&.&.&.&.&.&.&.&.&.&.&.&.&.&.&.&.&.&.&.&.z &.&.&.&.&.g &.g &.&.&.&.F &.&.&.g &.g F &.&.&.&.&.C &.&.&.&.&.&.&.&.&.&.&.&.&.&.&.&.&.&.&.&.&.&.&.",
"&.&.&.&.&.&.&.&.&.&.&.&.&.&.&.&.&.&.&.&.&.&.&.&.z &.&.&.&.&.z g &.&.g %.&.&.F &.&.g &.&.F g &.&.&.&.&.g &.&.&.&.&.&.&.&.&.&.&.&.&.&.&.&.&.&.&.&.&.&.&.",
"&.&.&.&.&.&.&.&.&.&.&.&.&.&.&.&.&.&.&.&.&.&.&.&.g &.&.&.&.&.g g &.&.&.g %.&.F &.g &.&.&.g v &.&.&.&.&.g &.&.&.&.&.&.&.&.&.&.&.&.&.&.&.&.&.&.&.&.&.&.&.",
"&.&.&.&.&.&.&.&.&.&.&.&.&.&.&.&.&.&.&.&.&.&.&.&.g &.&.&.&.g &.g &.&.&.&.g ..F g &.&.&.&.g &.g &.&.&.&.T &.&.&.&.&.&.&.&.&.&.&.&.&.&.&.&.&.&.&.&.&.&.&.",
"&.&.&.&.&.&.&.&.&.&.&.&.&.&.&.&.&.&.&.&.&.&.&.&.X &.&.&.&.g &.W &.&.&.&.&.g g &.&.&.&.&.g &.X W &.&.&.&.g &.&.&.&.&.&.&.&.&.&.&.&.&.&.&.&.&.&.&.&.&.&.",
"&.&.&.&.&.&.&.&.&.&.&.&.&.&.&.&.&.&.&.&.&.&.&.g &.&.&.&.g &.&.&.z &.&.&.&.g h T &.&.&.&.F &.&.g &.&.&.&.g &.&.&.&.&.&.&.&.&.&.&.&.&.&.&.&.&.&.&.&.&.&.",
"&.&.&.&.&.&.&.&.&.&.&.&.&.&.&.&.&.&.&.&.&.&.&.g &.&.&.&.p &.&.&.g &.&.&.g &.F s C &.&.F &.&.&.&.v &.&.&.g &.&.&.&.&.&.&.&.&.&.&.&.&.&.&.&.&.&.&.&.&.&.",
"&.&.&.&.&.&.&.&.&.&.&.&.&.&.&.&.&.&.&.&.&.&.&.j &.&.&.g &.&.&.&.g &.%.g &.&.F &.s s &.g &.&.&.&.g &.&.&.&.W &.&.&.&.&.&.&.&.&.&.&.&.&.&.&.&.&.&.&.&.&.",
"&.&.&.&.&.&.&.&.&.&.&.&.&.&.&.&.&.&.&.&.&.&.Q &.&.&.X Q &.&.&.&.g %.g &.&.&.F &.&.C s g &.&.&.&.&.g &.&.&.g &.&.&.&.&.&.&.&.&.&.&.&.&.&.&.&.&.&.&.&.&.",
"&.&.&.&.&.&.&.&.&.&.&.&.&.&.&.&.&.&.&.&.&.&.g &.&.&.g &.&.&.&.&.Q g &.&.&.&.F &.&.&.T g &.&.&.&.&.g &.&.&.g &.&.&.&.&.&.&.&.&.&.&.&.&.&.&.&.&.&.&.&.&.",
"&.&.&.&.&.&.&.&.&.&.&.&.&.&.&.&.&.&.&.&.&.&.g &.&.C %.&.&.&.&.T g z &.&.&.&.F &.&.&.&.w g &.&.&.&.&.g &.&.C &.&.&.&.&.&.&.&.&.&.&.&.&.&.&.&.&.&.&.&.&.",
"&.&.&.&.&.&.&.&.&.&.&.&.&.&.&.&.&.&.&.&.&.&.F &.&.g &.&.&.&.T j &.g &.&.&.&.F &.&.&.F &...g &.&.&.&.v &.&.&.v &.&.&.&.&.&.&.&.&.&.&.&.&.&.&.&.&.&.&.&.",
"&.&.&.&.&.&.&.&.&.&.&.&.&.&.&.&.&.&.&.&.&.p &.&.j &.&.&.&.C s &.&.g &.&.&.&.F &.&.&.g &.&.%.g &.&.&.&.g &.&.g &.&.&.&.&.&.&.&.&.&.&.&.&.&.&.&.&.&.&.&.",
"&.&.&.&.&.&.&.&.&.&.&.&.&.&.&.&.&.&.&.&.&.g &.&.g &.&.&.s s &.&.&.g &.&.&.&.F &.&.&.g &.&.&.%.g &.&.&.T X &.g &.&.&.&.&.&.&.&.&.&.&.&.&.&.&.&.&.&.&.&.",
"&.&.&.&.&.&.&.&.&.&.&.&.&.&.&.&.&.&.&.&.&.g &.g &.&.&.s C &.&.&.&.W &.&.&.&.F &.&.&.g &.&.&.&.&.g &.&.&.g &...%.&.&.&.&.&.&.&.&.&.&.&.&.&.&.&.&.&.&.&.",
"&.&.&.&.&.&.&.&.&.&.&.&.&.&.&.&.&.&.&.&...@.&.p &.&.j T &.&.&.&.&.&.v &.&.&.F &.&.&.F &.&.&.&.&.&.g &.&.&.v &.g &.&.&.&.&.&.&.&.&.&.&.&.&.&.&.&.&.&.&.",
"&.&.&.&.&.&.&.&.&.&.&.&.&.&.&.&.&.&.&.&.g &.g &.&.g T &.&.&.&.&.&.&.g &.&.&.F &.&.F &.&.&.&.&.&.&.&.g &.&.g &.g &.&.&.&.&.&.&.&.&.&.&.&.&.&.&.&.&.&.&.",
"&.&.&.&.&.&.&.&.&.&.&.&.&.&.&.&.&.&.&.&.g @.F &.g ..&.&.&.&.&.&.&.&.g &.&.&.F &.&.g &.&.&.&.&.&.&.&.&.g &.&.g p &.&.&.&.&.&.&.&.&.&.&.&.&.&.&.&.&.&.&.",
"&.&.&.&.&.&.&.&.&.&.&.&.&.&.&.&.&.&.&.&.s g &.g %.&.&.&.&.&.&.&.&.&.g &.&.&.F &.&.g &.&.&.&.&.&.&.&.&.&.g &.g &.F &.&.&.&.&.&.&.&.&.&.&.&.&.&.&.&.&.&.",
"&.&.&.&.&.&.&.&.&.&.&.&.&.&.&.&.&.&.&.C C %.g %.&.&.&.&.&.&.&.&.&.&.X &.&.&.F &.&.g &.&.&.&.&.&.&.&.&.&.&.g &.g g &.&.&.&.&.&.&.&.&.&.&.&.&.&.&.&.&.&.",
"&.&.&.&.&.&.&.&.&.&.&.&.&.&.&.&.&.&.&.g g g &.&.&.&.&.&.&.&.&.&.&.&.&.v &.&.F &.&.F &.&.&.&.&.&.&.&.&.&.&.&.g s g &.&.&.&.&.&.&.&.&.&.&.&.&.&.&.&.&.&.",
"&.&.&.&.&.&.&.&.&.&.&.&.&.&.&.&.&.&.&.g g &.&.&.&.&.&.&.&.&.&.&.&.&.&.g &.&.F &.F &.&.&.&.&.&.&.&.&.&.&.&.&.&.g g &.&.&.&.&.&.&.&.&.&.&.&.&.&.&.&.&.&.",
"&.&.&.&.&.&.&.&.&.&.&.&.&.&.&.&.&.&.&.g &.&.&.&.&.&.&.&.&.&.&.&.&.&.&.g &.&.F &.g &.&.&.&.&.&.&.&.&.&.&.&.&.&.&.g p &.&.&.&.&.&.&.&.&.&.&.&.&.&.&.&.&.",
"&.&.&.&.&.&.&.&.&.&.&.&.&.&.&.&.&.&.W &.&.&.&.&.&.&.&.&.&.&.&.&.&.&.&.g &.&.F &.g &.&.&.&.&.&.&.&.&.&.&.&.&.&.&.&.g &.&.&.&.&.&.&.&.&.&.&.&.&.&.&.&.&.",
"&.&.&.&.&.&.&.&.&.&.&.&.&.&.        &.&.&.&.&.&.&.&.&.&.&.&.&.&.&.&.&.X &.&.F &.g &.&.&.&.&.&.&.&.&.&.&.&.&.&.&.&.&.        &.&.&.&.&.&.&.&.&.&.&.&.&.",
"&.&.&.&.&.&.&.&.&.&.&.&.&.&.        &.&.&.&.&.&.&.&.&.&.&.&.&.&.&.&.&.&.v &.F &.F &.&.&.&.&.&.&.&.&.&.&.&.&.&.&.&.&.        &.&.&.&.&.&.&.&.&.&.&.&.&.",
"&.&.&.&.&.&.&.&.&.&.&.&.&.&.        &.&.&.&.&.&.&.&.&.&.&.&.&.&.&.&.&.&.g &.F F &.&.&.&.&.&.&.&.&.&.&.&.&.&.&.&.&.&.        &.&.&.&.&.&.&.&.&.&.&.&.&.",
"&.&.&.&.&.&.&.&.&.&.&.&.&.&.        &.&.&.&.&.&.&.&.&.&.&.&.&.&.&.&.&.&.g &.F g &.&.&.&.&.&.&.&.&.&.&.&.&.&.&.&.&.&.        &.&.&.&.&.&.&.&.&.&.&.&.&.",
"&.&.&.&.&.&.&.&.&.&.&.&.&.&.        &.&.&.&.&.&.&.&.&.&.&.&.&.&.&.&.&.&.g &.F g &.&.&.&.&.&.&.&.&.&.&.&.&.&.&.&.&.&.        &.&.&.&.&.&.&.&.&.&.&.&.&.",
"&.&.&.&.&.&.&.&.&.&.&.&.&.&.        &.&.&.&.&.&.&.&.&.&.&.&.&.&.&.&.&.&.X &.F g &.&.&.&.&.&.&.&.&.&.&.&.&.&.&.&.&.&.        &.&.&.&.&.&.&.&.&.&.&.&.&.",
"&.&.&.&.&.&.&.&.&.&.&.&.&.&.        &.&.&.&.&.&.&.&.&.&.&.&.&.&.&.&.&.&.&.v F F &.&.&.&.&.&.&.&.&.&.&.&.&.&.&.&.&.&.        &.&.&.&.&.&.&.&.&.&.&.&.&.",
"&.&.&.&.&.&.&.&.&.&.&.&.&.&.        &.&.&.&.&.&.&.&.&.&.&.&.&.&.&.&.&.&.&.g g &.&.&.&.&.&.&.&.&.&.&.&.&.&.&.&.&.&.&.        &.&.&.&.&.&.&.&.&.&.&.&.&.",
"&.&.&.&.&.&.&.&.&.&.&.&.&.&.        &.&.&.&.&.&.&.&.&.&.&.&.&.&.&.&.&.&.&.g g &.&.&.&.&.&.&.&.&.&.&.&.&.&.&.&.&.&.&.        &.&.&.&.&.&.&.&.&.&.&.&.&.",
"&.&.&.&.&.&.&.&.&.&.&.&.&.&.        &.&.&.&.&.&.&.&.&.&.&.&.&.&.&.&.&.&.&.g g &.&.&.&.&.&.&.&.&.&.&.&.&.&.&.&.&.&.&.        &.&.&.&.&.&.&.&.&.&.&.&.&.",
"&.&.&.&.&.&.&.&.&.&.&.&.&.&.        &.&.&.&.&.&.&.&.&.&.&.&.&.&.&.&.&.&.&.X g &.&.&.&.&.&.&.&.&.&.&.&.&.&.&.&.&.&.&.        &.&.&.&.&.&.&.&.&.&.&.&.&.",
"&.&.&.&.&.&.&.&.&.&.&.&.&.&.        &.&.&.&.&.&.&.&.&.&.&.&.&.&.&.&.&.&.&.&.W &.&.&.&.&.&.&.&.&.&.&.&.&.&.&.&.&.&.&.        &.&.&.&.&.&.&.&.&.&.&.&.&.",
"&.&.&.&.&.&.&.&.&.&.&.&.&.&.        &.&.&.&.&.&.&.&.&.&.&.&.&.&.&.&.              ~ &.&.&.&.&.&.&.&.&.&.&.&.&.&.&.&.        &.&.&.&.&.&.&.&.&.&.&.&.&.",
"&.&.&.&.&.&.&.&.&.&.&.&.&.&.        &.&.&.&.&.&.&.&.&.&.&.&.&.&.#.                    &.&.&.&.&.&.&.&.&.&.&.&.&.&.&.        &.&.&.&.&.&.&.&.&.&.&.&.&.",
"&.&.&.&.&.&.&.&.&.&.&.&.&.&.        &.&.&.&.&.&.&.&.&.&.&.&.&.&.                        &.&.&.&.&.&.&.&.&.&.&.&.&.&.        &.&.&.&.&.&.&.&.&.&.&.&.&.",
"&.&.&.&.&.&.&.&.&.&.&.&.&.&.        &.&.&.&.&.&.&.&.&.&.&.&.&.~       Y &.&.&.&.{       ! &.&.&.&.&.&.&.&.&.&.&.&.&.        &.&.&.&.&.&.&.&.&.&.&.&.&.",
"&.&.&.&.&.&.&.&.&.&.&.&.&.&.        &.&.&.&.&.&.&.&.&.&.&.&.&.        &.&.&.&.&.&.        &.&.&.&.&.&.&.&.&.&.&.&.&.        &.&.&.&.&.&.&.&.&.&.&.&.&.",
"&.&.&.&.&.&.&.&.&.&.&.&.&.&.        &.&.&.&.&.&.&.&.&.&.&.&.&.        &.&.&.&.&.&.I       &.&.&.&.&.&.&.&.&.&.&.&.&.        &.&.&.&.&.&.&.&.&.&.&.&.&.",
"&.&.&.&.&.&.&.&.&.&.&.&.&.&.&.&.&.&.&.&.&.&.&.&.&.&.&.&.&.&.&.        &.&.&.&.&.&.&.&.&.&.&.&.&.&.&.&.&.&.&.&.&.&.&.&.&.&.&.&.&.&.&.&.&.&.&.&.&.&.&.&.",
"&.&.&.&.&.&.&.&.&.&.&.&.&.&.&.&.&.&.&.&.&.&.&.&.&.&.&.&.&.&.&./             K &.&.&.&.&.&.&.&.&.&.&.&.&.&.&.&.&.&.&.&.&.&.&.&.&.&.&.&.&.&.&.&.&.&.&.&.",
"&.&.&.&.&.&.&.&.&.&.&.&.&.&.&.&.&.&.&.&.&.&.&.&.&.&.&.&.&.&.&.&.                    / &.&.&.&.&.&.&.&.&.&.&.&.&.&.&.&.&.&.&.&.&.&.&.&.&.&.&.&.&.&.&.&.",
"&.&.&.&.&.&.&.&.&.&.&.&.&.&.&.&.&.&.&.&.&.&.&.&.&.&.&.&.&.&.&.&.&./                     &.&.&.&.&.&.&.&.&.&.&.&.&.&.&.&.&.&.&.&.&.&.&.&.&.&.&.&.&.&.&.",
"&.&.&.&.&.&.&.&.&.&.&.&.&.&.&.&.&.&.&.&.&.&.&.&.&.&.&.&.&.&.&.&.&.&.&.&.Y                 &.&.&.&.&.&.&.&.&.&.&.&.&.&.&.&.&.&.&.&.&.&.&.&.&.&.&.&.&.&.",
"&.&.&.&.&.&.&.&.&.&.&.&.&.&.&.&.&.&.&.&.&.&.&.&.&.&.&.&.&.&.&.&.&.&.&.&.&.&.&.&.&.        J &.&.&.&.&.&.&.&.&.&.&.&.&.&.&.&.&.&.&.&.&.&.&.&.&.&.&.&.&.",
"#.&.&.&.&.&.&.&.&.&.&.&.&.&.&.&.&.&.&.&.&.&.&.&.&.&.&.&.&.&.&.&.&.&.&.&.&.&.&.&.&.&.        &.&.&.&.&.&.&.&.&.&.&.&.&.&.&.&.&.&.&.&.&.&.&.&.&.&.&.&.#.",
"#.&.&.&.&.&.&.&.&.&.&.&.&.&.&.&.&.&.&.&.&.&.&.&.&.&.&.&.&.&.&.      Z &.&.&.&.&.&.&.        &.&.&.&.&.&.&.&.&.&.&.&.&.&.&.&.&.&.&.&.&.&.&.&.&.&.&.&.#.",
"#.#.&.&.&.&.&.&.&.&.&.&.&.&.&.&.&.&.&.&.&.&.&.&.&.&.&.&.&.&.&.        &.&.&.&.&.&.&.      I &.&.&.&.&.&.&.&.&.&.&.&.&.&.&.&.&.&.&.&.&.&.&.&.&.&.&.#.#.",
"#.#.&.&.&.&.&.&.&.&.&.&.&.&.&.&.&.&.&.&.&.&.&.&.&.&.&.&.&.&.&.          &.&.&.&.#.        &.&.&.&.&.&.&.&.&.&.&.&.&.&.&.&.&.&.&.&.&.&.&.&.&.&.&.&.#.#.",
"#.#.#.&.&.&.&.&.&.&.&.&.&.&.&.&.&.&.&.&.&.&.&.&.&.&.&.&.&.&.&.&.                        ] &.&.&.&.&.&.&.&.&.&.&.&.&.&.&.&.&.&.&.&.&.&.&.&.&.&.&.#.#.#.",
"#.#.#.#.#.&.&.&.&.&.&.&.&.&.&.&.&.&.&.&.&.&.&.&.&.&.&.&.&.&.&.&.&.                    / &.&.&.&.&.&.&.&.&.&.&.&.&.&.&.&.&.&.&.&.&.&.&.&.&.&.#.#.#.#.#.",
"#.#.#.#.#.#.#.&.&.&.&.&.&.&.&.&.&.&.&.&.&.&.&.&.&.&.&.&.&.&.&.&.&.&.&.            ( &.&.&.&.&.&.&.&.&.&.&.&.&.&.&.&.&.&.&.&.&.&.&.&.&.&.#.#.#.#.#.#.#."};
